<svg width="932" height="982" viewBox="0 0 932 982" fill="none" xmlns="http://www.w3.org/2000/svg">
<path d="M64.8946 1035.22L490.707 1035.59L1040.5 1036.08C1042.58 1036.08 1044.26 1034.53 1044.27 1032.45C1044.31 993.602 1044.68 654.071 1044.68 555.224C1044.68 450.326 874.154 451.67 874.698 555.224C875.243 658.779 874.96 706.188 874.154 789.639C873.347 873.089 757.055 866.62 757.055 789.536C757.055 712.453 757.056 71.9226 757.057 -13.4383C757.058 -98.7992 586.883 -113.583 586.885 -13.4375C586.886 61.9362 586.885 336.223 586.885 499.48L586.884 613.464C586.884 688.928 470.002 679.621 470.002 613.464L470.002 367.07C470.002 237.264 299.677 237.264 299.677 366.92C299.677 496.577 299.708 653.027 299.348 742.222C298.988 831.418 172.139 825.369 171.605 742.11C171.07 658.852 172.139 240.96 172.139 132.244C172.139 23.5293 1.81416 20.8408 1.8142 132.095C1.81411 240.713 1.11867 930.944 1.08566 963.599L1.08449 964.796C1.08448 964.805 1.08435 964.807 1.08423 964.809L1.0841 964.82C0.43528 1015.26 14.9303 1030.4 64.8946 1035.22Z" fill="#664187"/>
<path d="M874.698 168.047L874.698 168.047C874.698 168.035 874.698 168.054 874.698 168.043C874.705 167.673 875.507 123.45 874.832 15.5787C874.154 -92.7476 1045.16 -88.7148 1045.16 15.7279L1045.16 83.9439C1045.16 163.101 1045.16 239.45 1045.16 320.607C1045.16 424.785 874.154 413.359 874.154 320.607C874.154 228.162 874.695 168.442 874.698 168.047Z" fill="#664187"/>
<path d="M64.8946 1035.22L490.707 1035.59L1040.5 1036.08C1042.58 1036.08 1044.26 1034.53 1044.27 1032.45C1044.31 993.602 1044.68 654.071 1044.68 555.224C1044.68 450.326 874.154 451.67 874.698 555.224C875.243 658.779 874.96 706.188 874.154 789.639C873.347 873.089 757.055 866.62 757.055 789.536C757.055 712.453 757.056 71.9226 757.057 -13.4383C757.058 -98.7992 586.883 -113.583 586.885 -13.4375C586.886 61.9362 586.885 336.223 586.885 499.48L586.884 613.464C586.884 688.928 470.002 679.621 470.002 613.464L470.002 367.07C470.002 237.264 299.677 237.264 299.677 366.92C299.677 496.577 299.708 653.027 299.348 742.222C298.988 831.418 172.139 825.369 171.605 742.11C171.07 658.852 172.139 240.96 172.139 132.244C172.139 23.5293 1.81416 20.8408 1.8142 132.095C1.81411 240.713 1.11867 930.944 1.08566 963.599L1.08449 964.796C1.08448 964.805 1.08435 964.807 1.08423 964.809L1.0841 964.82C0.43528 1015.26 14.9303 1030.4 64.8946 1035.22Z" stroke="#967FCF" stroke-width="1.25392"/>
<path d="M874.698 168.047L874.698 168.047C874.698 168.035 874.698 168.054 874.698 168.043C874.705 167.673 875.507 123.45 874.832 15.5787C874.154 -92.7476 1045.16 -88.7148 1045.16 15.7279L1045.16 83.9439C1045.16 163.101 1045.16 239.45 1045.16 320.607C1045.16 424.785 874.154 413.359 874.154 320.607C874.154 228.162 874.695 168.442 874.698 168.047Z" stroke="#967FCF" stroke-width="1.25392"/>
<rect x="466.111" y="-288.564" width="359.875" height="161.756" rx="80.8778" transform="rotate(90.0502 466.111 -288.564)" fill="#664187"/>
</svg>
